<?xml version="1.0" encoding="utf-8"?>
<!-- Generator: Adobe Illustrator 24.3.0, SVG Export Plug-In . SVG Version: 6.00 Build 0)  -->
<svg version="1.1" id="Layer_1" xmlns="http://www.w3.org/2000/svg" xmlns:xlink="http://www.w3.org/1999/xlink" x="0px" y="0px"
	 viewBox="0 0 39.3 40.9" style="enable-background:new 0 0 39.3 40.9;" xml:space="preserve">
<style type="text/css">
	.st0{fill:#FFFFFF;}
</style>
<g>
	<path class="st0" d="M37.5,5.4H32V0.9C32,0.4,31.6,0,31.1,0c-0.5,0-0.9,0.4-0.9,0.9v4.6h-20V0.9C10.3,0.4,9.9,0,9.4,0
		S8.5,0.4,8.5,0.9v4.6H1.8C0.8,5.4,0,6.2,0,7.2v31.9c0,1,0.8,1.8,1.8,1.8h35.7c1,0,1.8-0.8,1.8-1.8V7.2C39.3,6.2,38.5,5.4,37.5,5.4z
		 M1.8,39.1V7.2h6.7V8c0,0.1,0,0.1,0,0.1c-0.6,0.3-1.1,1-1.1,1.7c0,1.1,0.9,2,2,2s2-0.9,2-2c0-0.8-0.4-1.4-1.1-1.7c0,0,0-0.1,0-0.1
		V7.2h20V8c0,0.1,0,0.1,0,0.1c-0.6,0.3-1.1,1-1.1,1.7c0,1.1,0.9,2,2,2s2-0.9,2-2c0-0.8-0.4-1.4-1.1-1.7c0,0,0-0.1,0-0.1V7.2h5.5
		l0,31.9H1.8z"/>
	<path class="st0" d="M33.9,34.1H5.4c-0.5,0-0.9,0.4-0.9,0.9s0.4,0.9,0.9,0.9h28.6c0.5,0,0.9-0.4,0.9-0.9S34.4,34.1,33.9,34.1z"/>
	<path class="st0" d="M33.9,29.2H5.4c-0.5,0-0.9,0.4-0.9,0.9c0,0.5,0.4,0.9,0.9,0.9h28.6c0.5,0,0.9-0.4,0.9-0.9
		C34.8,29.6,34.4,29.2,33.9,29.2z"/>
	<path class="st0" d="M16,26.3c0.9,0,1.7-0.8,1.7-1.7V12.5c0-0.9-0.8-1.7-1.7-1.7c-0.9,0-1.7,0.8-1.7,1.7v12.1
		C14.3,25.6,15.1,26.3,16,26.3z"/>
	<path class="st0" d="M23.2,26.3c0.9,0,1.7-0.8,1.7-1.7V12.5c0-0.9-0.8-1.7-1.7-1.7s-1.7,0.8-1.7,1.7v12.1
		C21.5,25.6,22.3,26.3,23.2,26.3z"/>
</g>
</svg>
