<?xml version="1.0" encoding="utf-8"?>
<!-- Generator: Adobe Illustrator 24.3.0, SVG Export Plug-In . SVG Version: 6.00 Build 0)  -->
<svg version="1.1" id="Layer_1" xmlns="http://www.w3.org/2000/svg" xmlns:xlink="http://www.w3.org/1999/xlink" x="0px" y="0px"
	 viewBox="0 0 45.6 37.5" style="enable-background:new 0 0 45.6 37.5;" xml:space="preserve">
<style type="text/css">
	.st0{fill:#FFFFFF;}
</style>
<g>
	<rect class="st0" x="7.2" y="7.1" width="3.6" height="1.8"/>
	<rect class="st0" x="7.2" y="10.7" width="3.6" height="1.8"/>
	<path class="st0" d="M37.5,17.9c1.5,0,2.7-1.2,2.7-2.7s-1.2-2.7-2.7-2.7c-1.5,0-2.7,1.2-2.7,2.7S36.1,17.9,37.5,17.9z M37.5,14.3
		c0.5,0,0.9,0.4,0.9,0.9c0,0.5-0.4,0.9-0.9,0.9s-0.9-0.4-0.9-0.9C36.6,14.7,37,14.3,37.5,14.3z"/>
	<path class="st0" d="M1.7,32.1H0.9c-0.5,0-0.9,0.4-0.9,0.9v3.4c0,0.6,0.5,1.1,1.1,1.1h43.6c0.5,0,0.9-0.4,0.9-0.9V33c0-0.5-0.4-0.9-0.9-0.9
		h-1.8V9.8c0-0.5-0.4-0.9-0.9-0.9h-8v-8C34,0.4,33.6,0,33.1,0H22.4c-0.5,0-0.9,0.4-0.9,0.9v6.3h-7.1V2.7c0-0.5-0.4-0.9-0.9-0.9H4.5
		C4,1.8,3.6,2.2,3.6,2.7v2.7v26.8H1.7z M23.3,32.1V8h8.9v24.1H23.3z M14.3,32.1v-2.7h7.1v2.7H14.3z M41.1,27.7H34v-0.9h7.1V27.7z
		 M32.2,6.3h-8.9V5.4h8.9V6.3z M21.5,27.7h-7.1v-0.9h7.1V27.7z M34,29.5h7.1v2.7H34V29.5z M41.1,10.7V25H34V10.7H41.1z M32.2,1.8
		v1.8h-8.9V1.8H32.2z M21.5,8.9V25h-7.1V8.9H21.5z M5.4,3.6h7.1v28.6H5.4V3.6z"/>
</g>
</svg>
