<?xml version="1.0" encoding="utf-8"?>
<!-- Generator: Adobe Illustrator 24.3.0, SVG Export Plug-In . SVG Version: 6.00 Build 0)  -->
<svg version="1.1"
	 id="Layer_1" xmlns:cc="http://creativecommons.org/ns#" xmlns:dc="http://purl.org/dc/elements/1.1/" xmlns:inkscape="http://www.inkscape.org/namespaces/inkscape" xmlns:rdf="http://www.w3.org/1999/02/22-rdf-syntax-ns#" xmlns:sodipodi="http://sodipodi.sourceforge.net/DTD/sodipodi-0.dtd" xmlns:svg="http://www.w3.org/2000/svg"
	 xmlns="http://www.w3.org/2000/svg" xmlns:xlink="http://www.w3.org/1999/xlink" x="0px" y="0px" viewBox="0 0 40.7 40.8"
	 style="enable-background:new 0 0 40.7 40.8;" xml:space="preserve">
<style type="text/css">
	.st0{fill:#FFFFFF;}
</style>
<g transform="translate(0,-290.64999)">
	<path class="st0" d="M36.1,290.6c-1.2,0-2.2,1.1-2.2,2.3c0,0,0,0,0,0v3c-3.7-3.3-8.5-5.2-13.6-5.2C9.1,290.7,0,299.8,0,311.1
		c-0.1,1.2,0.8,2.3,2.1,2.4c1.2,0.1,2.3-0.8,2.4-2.1c0-0.1,0-0.3,0-0.4c0-8.8,7.1-15.8,15.8-15.8c4.2,0,8.1,1.7,11,4.5h-4.3
		c-1.2,0-2.3,1-2.3,2.2c0,1.2,1,2.3,2.2,2.3c0,0,0.1,0,0.1,0h9c1.2,0,2.3-1,2.3-2.3v-9C38.5,291.7,37.5,290.7,36.1,290.6
		C36.2,290.6,36.2,290.6,36.1,290.6L36.1,290.6z M38.4,308.7c-1.2,0-2.2,1-2.2,2.3c0,0,0,0,0,0c0,8.8-7.1,15.8-15.8,15.8
		c-4.2,0-8.1-1.7-11-4.5h4.2c1.3,0,2.3-1,2.3-2.3c0-1.3-1-2.3-2.3-2.3h-9c-1.2,0-2.3,1-2.3,2.3c0,0,0,0,0,0v9c0,1.2,1,2.3,2.2,2.3
		c1.2,0,2.3-1,2.3-2.2c0,0,0-0.1,0-0.1v-2.9c3.7,3.3,8.5,5.2,13.6,5.2c11.2,0,20.3-9.1,20.3-20.3C40.7,309.8,39.7,308.7,38.4,308.7
		C38.5,308.7,38.4,308.7,38.4,308.7L38.4,308.7z"/>
</g>
</svg>
